# xmcd
#
# Track frame offsets:
#	150
#	21877
#	43605
#	53897
#	62635
#	78612
#	93222
#	106587
#	129480
#
# Disc length: 1903 seconds
#
# Revision: 0
# Processed by: cddbd v1.4PL0 Copyright (c) Steve Scherf et al.
# Submitted via: dBpowerAMP V4.0
#
DISCID=6a076d09
DTITLE=Various Artist - Country's Greatest Hits: Outlaw Country
DYEAR=1992
DGENRE=Country
TTITLE0=Merle Haggard and Willie Nelson - Pancho and Lefty
TTITLE1=Waylon Jennings - I Ain't Livin' Long Like This
TTITLE2=Hank Williams Jr. - Honky Tonkin'
TTITLE3=C. W. McCall - Outlaws and Lone Star Beer
TTITLE4=Willie Nelson - Wiskey River 
TTITLE5=Johnny Cash and Waylon Jennings/ There Aint' No Good Chain Gang
TTITLE6=Merle Haggard - I'm a Lonsome Fugitive
TTITLE7=Johnny Paycheck - The Outlaw's Prayer
TTITLE8=John Anderson - Black Sheep
EXTD=Compliation by Priority Records
EXTT0=
EXTT1=
EXTT2=
EXTT3=
EXTT4=
EXTT5=
EXTT6=
EXTT7=
EXTT8=
PLAYORDER=
